<?xml version="1.0" encoding="UTF-8" standalone="no"?>
<!-- Uploaded to: SVG Repo, www.svgrepo.com, Generator: SVG Repo Mixer Tools -->

<svg
   fill="#000000"
   version="1.1"
   id="Capa_1"
   width="303.23315"
   height="800"
   viewBox="0 0 161.281 425.497"
   xml:space="preserve"
   sodipodi:docname="necklace-jewel-svgrepo-com.svg"
   inkscape:version="1.3.2 (1:1.3.2+202311252150+091e20ef0f)"
   xmlns:inkscape="http://www.inkscape.org/namespaces/inkscape"
   xmlns:sodipodi="http://sodipodi.sourceforge.net/DTD/sodipodi-0.dtd"
   xmlns="http://www.w3.org/2000/svg"
   xmlns:svg="http://www.w3.org/2000/svg"><defs
   id="defs3" /><sodipodi:namedview
   id="namedview3"
   pagecolor="#505050"
   bordercolor="#eeeeee"
   borderopacity="1"
   inkscape:showpageshadow="0"
   inkscape:pageopacity="0"
   inkscape:pagecheckerboard="0"
   inkscape:deskcolor="#d1d1d1"
   inkscape:zoom="0.295"
   inkscape:cx="150.84746"
   inkscape:cy="398.30508"
   inkscape:window-width="1920"
   inkscape:window-height="1097"
   inkscape:window-x="3840"
   inkscape:window-y="0"
   inkscape:window-maximized="1"
   inkscape:current-layer="Capa_1" />
<g
   id="g3"
   transform="translate(-132.108)">
	<g
   id="g2">
		<path
   d="m 219.142,349.132 c -0.36,-0.358 -0.75,-0.678 -1.156,-0.967 C 228.331,317.153 293.389,120.542 293.389,80.641 293.389,36.176 257.213,0 212.749,0 c -44.465,0 -80.641,36.175 -80.641,80.641 0,39.901 65.059,236.512 75.405,267.524 -0.406,0.289 -0.796,0.607 -1.156,0.967 l -30.467,30.467 c -3.524,3.525 -3.524,9.261 0,12.783 l 30.467,30.467 c 1.708,1.707 3.977,2.648 6.392,2.648 2.416,0 4.684,-0.941 6.393,-2.648 l 30.468,-30.467 c 3.521,-3.522 3.521,-9.258 0,-12.783 z M 212.749,8.35 c 39.863,0 72.292,32.43 72.292,72.292 0,35.577 -56.641,209.422 -72.292,256.78 -15.651,-47.357 -72.292,-221.203 -72.292,-256.78 0,-39.863 32.43,-72.292 72.292,-72.292 z m 30.953,378.129 -30.466,30.467 c -0.167,0.168 -0.357,0.201 -0.488,0.201 -0.131,0 -0.321,-0.033 -0.488,-0.201 l -30.467,-30.467 c -0.269,-0.271 -0.269,-0.707 0,-0.978 l 30.467,-30.467 c 0.167,-0.168 0.357,-0.203 0.488,-0.203 0.131,0 0.321,0.035 0.488,0.203 l 30.466,30.467 c 0.269,0.271 0.269,0.709 0,0.978 z"
   id="path1" />
		<path
   d="m 217.297,367.265 c -1.215,-1.215 -2.829,-1.883 -4.548,-1.883 -1.719,0 -3.335,0.668 -4.552,1.887 l -14.171,14.171 c -2.51,2.51 -2.51,6.594 0,9.104 l 14.171,14.172 c 1.216,1.215 2.833,1.885 4.552,1.885 1.718,0 3.335,-0.67 4.55,-1.885 l 14.172,-14.172 c 2.512,-2.51 2.512,-6.594 0,-9.104 z m -4.548,30.193 -11.468,-11.469 11.468,-11.467 11.466,11.467 z"
   id="path2" />
	</g>
</g>
</svg>
