<?xml version="1.0" encoding="UTF-8" standalone="no"?>
<!-- Uploaded to: SVG Repo, www.svgrepo.com, Generator: SVG Repo Mixer Tools -->

<svg
   fill="#000000"
   width="639.20001"
   height="1288"
   viewBox="0 0 799.00002 1610"
   version="1.1"
   id="svg1"
   sodipodi:docname="body_armour_placeholder.svg"
   inkscape:version="1.3.2 (1:1.3.2+202311252150+091e20ef0f)"
   xmlns:inkscape="http://www.inkscape.org/namespaces/inkscape"
   xmlns:sodipodi="http://sodipodi.sourceforge.net/DTD/sodipodi-0.dtd"
   xmlns="http://www.w3.org/2000/svg"
   xmlns:svg="http://www.w3.org/2000/svg">
  <defs
     id="defs1" />
  <sodipodi:namedview
     id="namedview1"
     pagecolor="#505050"
     bordercolor="#eeeeee"
     borderopacity="1"
     inkscape:showpageshadow="0"
     inkscape:pageopacity="0"
     inkscape:pagecheckerboard="0"
     inkscape:deskcolor="#d1d1d1"
     inkscape:zoom="0.295"
     inkscape:cx="320.33898"
     inkscape:cy="296.61017"
     inkscape:window-width="1920"
     inkscape:window-height="1097"
     inkscape:window-x="3840"
     inkscape:window-y="0"
     inkscape:window-maximized="1"
     inkscape:current-layer="svg1" />
  <path
     d="m 619,751.74412 q 7,19.80591 15,37.41116 19,50.61509 38,103.43084 18,-19.80591 64,-6.60197 23,6.60197 42,17.60525 l 21,-46.21378 v -8.80263 q 0,-6.60197 -3,-15.40459 -3,-8.80262 -11.5,-13.20394 -8.5,-4.40131 -24.5,-2.20065 -19,4.40131 -36,-4.40131 -13,-8.80263 -24,-22.00657 L 666,742.9415 627,705.53035 Z m 142,0 q 1,-4.40131 2,-11.00328 3,-13.20393 8,-24.20721 6,-17.60525 16,-28.60853 Q 765,659.31657 758,624.10607 751,595.49754 748,527.2772 736,452.45489 712,393.03718 692,346.8234 665,311.6129 645,285.20503 624,267.59978 l -17,-11.00328 -6,11.00328 q -7,11.00328 -16,15.40459 -11,6.60197 -23,-2.20065 19,123.23674 11,198.05905 -3,35.2105 -11,48.41443 48,48.41444 78,112.23346 21,55.01641 44,85.82559 19,24.20722 39,30.80919 14,4.40131 27,0 z M 461,410.64243 q 23,-35.2105 37,-70.421 12,-28.60853 18,-52.81574 4,-19.80591 5,-35.2105 l 1,-11.00328 q -19,-33.00984 -38,-90.2269 -21,-66.019684 -18,-99.029526 -8,0 -28,-20.906233 -20,-20.906233 -32,-27.5082012 -20,-8.8026244 -38,4.4013122 -23,17.605249 -45,72.621651 -2,41.812467 -6,77.022967 l -2,26.40787 7,22.00656 q 10,22.00656 24,37.41115 19,17.60525 42,15.4046 28,-2.20066 61,-37.41116 -16,28.60853 -44,46.21378 -34,19.80591 -65,11.00328 -38,-11.00328 -64,-66.01968 4,59.41771 4,74.82231 l -4,-19.80591 4,19.80591 q 20,72.62165 53,112.23346 54,61.61837 128,11.00328 z m -123,-308.09186 8,-8.80262 q 23,-26.407873 41,-28.608529 33,-6.601969 66,44.013119 -36,61.61837 -79,33.00984 -22,-13.20393 -36,-39.61181 z m -61,171.65118 -1,-6.60197 z M 237,527.2772 q -2,-6.60197 -4,-11.00328 -5,-15.40459 -7,-37.41115 -4,-33.00984 -2,-77.02297 3,-52.81574 13,-121.03608 -16,11.00328 -32,-6.60197 -8,-6.60197 -13,-17.60525 l -17,11.00328 q -21,17.60525 -41,41.81247 -27,37.41115 -47,83.62493 -24,59.41771 -36,134.24002 -3,68.22034 -9,96.82887 -8,35.2105 -30,63.81903 14,17.60525 21,41.81246 4,13.20394 6,22.00656 l 10,4.40132 q 13,4.40131 27,0 20,-6.60197 39,-30.80919 23,-30.80918 44,-85.82559 30,-63.81902 78,-112.23346 z M 21,903.5894 q 11,-4.40132 21,-8.80263 25,-11.00328 45,-13.20394 27,-2.20065 41,11.00329 29,-85.82559 53,-140.842 l -9,-46.21377 -39,37.41115 -34,48.41443 q -11,13.20394 -23,19.80591 -18,11.00328 -37,6.60197 -15,-2.20066 -23.5,2.20065 -8.5,4.40132 -11.5,12.10361 -3,7.7023 -4,16.50492 v 8.80263 z m 517,424.7266 q 7,-118.8354 12,-184.8551 5,-66.0197 8,-93.5279 3,-27.5082 5.5,-34.1101 2.5,-6.602 6.5,-5.5017 4,1.1003 7.5,-1.1003 3.5,-2.2007 7.5,-17.60526 21,-63.81903 19,-184.85511 -1,-68.22034 -12,-178.25315 l -3,-37.41115 q -9,-6.60197 -25,-28.60853 -25,-39.61181 -50,-59.41771 -43,-33.00985 -114,-41.81247 -71,8.80262 -114,41.81247 -25,19.8059 -51,59.41771 -15,22.00656 -24,28.60853 l -3,37.41115 q -11,110.03281 -12,178.25315 -3,121.03608 18,184.85511 5,15.40456 8.5,17.60526 3.5,2.2006 7.5,1.1003 4,-1.1003 6,5.5017 2,6.6019 5.5,34.1101 3.5,27.5082 8,93.5279 4.5,66.0197 12.5,184.8551 19,-28.6085 80,2.2007 31,15.4046 58,35.2105 l 29,-19.8059 q 34,-22.0066 60,-28.6086 35,-11.0032 49,11.0033 z M 229,1224.8852 q 2,74.8223 -23,182.6544 -13,55.0164 -26,94.6283 L 373,1610 l 6,-13.2039 q 8,-13.204 13,-28.6086 7,-22.0065 8,-41.8124 0,28.6085 13,57.217 7,15.4046 14,26.4079 l 192,-107.8321 -13,-46.2138 q -14,-57.2171 -23,-107.8322 -12,-72.6216 -13,-123.2367 -6,30.8092 -12,138.6413 l -4,59.4177 q -28,-15.4046 -71,-6.6019 -24,6.6019 -64,24.2072 l -18,6.602 q -2,28.6085 -2,41.8124 0,-15.4046 -1,-41.8124 l -19,-8.8027 q -40,-15.4046 -64,-22.0065 -43,-8.8027 -70,6.6019 l -4,-57.217 q -3,-57.2171 -5,-79.2236 -3,-39.6119 -7,-61.6184 z"
     id="path1"
     style="stroke-width:1.48346" />
</svg>
