<?xml version="1.0" encoding="iso-8859-1"?>
<!-- Uploaded to: SVG Repo, www.svgrepo.com, Generator: SVG Repo Mixer Tools -->
<!DOCTYPE svg PUBLIC "-//W3C//DTD SVG 1.1//EN" "http://www.w3.org/Graphics/SVG/1.1/DTD/svg11.dtd">
<svg fill="#000000" height="800px" width="800px" version="1.1" id="Capa_1" xmlns="http://www.w3.org/2000/svg" xmlns:xlink="http://www.w3.org/1999/xlink" 
	 viewBox="0 0 222.333 222.333" xml:space="preserve">
<path d="M222.333,172.44c0,4.143-3.358,7.5-7.5,7.5h-44.98h-31.211h-10.557c-4.142,0-7.5-3.357-7.5-7.5V49.893
	c0-4.143,3.358-7.5,7.5-7.5h41.768c4.142,0,7.5,3.357,7.5,7.5v79.247h1.68C202.909,129.14,222.333,148.564,222.333,172.44z
	 M94.248,42.393H52.48c-4.142,0-7.5,3.357-7.5,7.5v79.247H43.3C19.424,129.14,0,148.564,0,172.44c0,4.143,3.358,7.5,7.5,7.5h44.98
	h31.211h10.557c4.142,0,7.5-3.357,7.5-7.5V49.893C101.748,45.75,98.39,42.393,94.248,42.393z"/>
</svg>