<?xml version="1.0" encoding="UTF-8" standalone="no"?>
<!-- Uploaded to: SVG Repo, www.svgrepo.com, Transformed by: SVG Repo Mixer Tools -->

<svg
   width="451.93835"
   height="373.08459"
   viewBox="-20 0 107.33536 88.607591"
   fill="none"
   version="1.1"
   id="svg1"
   sodipodi:docname="gloves_placeholder.svg"
   inkscape:version="1.3 (0e150ed6c4, 2023-07-21)"
   xmlns:inkscape="http://www.inkscape.org/namespaces/inkscape"
   xmlns:sodipodi="http://sodipodi.sourceforge.net/DTD/sodipodi-0.dtd"
   xmlns="http://www.w3.org/2000/svg"
   xmlns:svg="http://www.w3.org/2000/svg">
  <defs
     id="defs1" />
  <sodipodi:namedview
     id="namedview1"
     pagecolor="#ffffff"
     bordercolor="#999999"
     borderopacity="1"
     inkscape:showpageshadow="2"
     inkscape:pageopacity="0"
     inkscape:pagecheckerboard="0"
     inkscape:deskcolor="#d1d1d1"
     inkscape:zoom="1.01625"
     inkscape:cx="226.32226"
     inkscape:cy="144.15744"
     inkscape:window-width="1920"
     inkscape:window-height="1009"
     inkscape:window-x="-8"
     inkscape:window-y="-8"
     inkscape:window-maximized="1"
     inkscape:current-layer="svg1" />
  <g
     id="SVGRepo_bgCarrier"
     stroke-width="0"
     transform="translate(-41.331243,-60.748125)" />
  <g
     id="SVGRepo_tracerCarrier"
     stroke-linecap="round"
     stroke-linejoin="round"
     transform="translate(-41.331243,-60.748125)" />
  <g
     id="SVGRepo_iconCarrier"
     transform="translate(-41.331243,-60.748125)">
    <path
       fill-rule="evenodd"
       clip-rule="evenodd"
       d="m 122,97 c 5.5,-3 9.8,4.65 3.66,8 -8.874,4.943 -16.888,11.292 -23.73,18.8 -6.17,-5.15 -12.41,-12.35 -15.22,-17.33 L 85.87,80.54 c 0,0 8.46,-12.71 11.75,-16.8 4.35,-5.39 10.93,-0.86 6.58,5.54 C 100.89,74.16 93,86.55 93,86.55 l 1.52,1.53 c 0,0 13.72,-14.94 17.09,-18.49 4.77,-5 11.56,0.94 6.21,6.58 -3.68,3.88 -18.17,19.64 -18.17,19.64 l 1.35,1.54 c 0,0 13.91,-11.83 17.68,-14.87 5.4,-4.35 10.68,1.77 4.93,7 -3.93,3.55 -18,15.18 -18,15.18 l 0.84,1.51 c 0,0 12.17,-7.36 15.55,-9.17 z m -41.94,48.1 -13.79,-16.5 -2.11,1.65 9.59,17.55 c -3.5757,1.225 -7.3575,1.735 -11.13,1.5 -4.88,-13.64 -14.54,-31 -38.7,-47.36 -5.79,-3.93 -0.78,-11.11 4.41,-7.62 3.2,2.14 14.54,10.61 14.54,10.61 l 1,-1.43 c 0,0 -12.87,-12.91 -16.44,-16.84 -5.22,-5.73 0.63,-11.31 5.58,-6.47 3.46,3.39 16.18,16.5 16.18,16.5 l 1.54,-1.39 c 0,0 -12.91,-17.08 -16.2,-21.3 -4.77,-6.13 2.56,-11.41 6.82,-6 3,3.86 15.24,20 15.24,20 l 1.65,-1.38 c 0,0 -6.7,-13.09 -9.53,-18.27 C 45,61.66 52,57.78 55.79,63.57 c 3.34,5.07 6.69,11.3 10.26,18 l 0.54,16.58 3.22,0.16 c 0.28,-4.46 0.69,-10.85 0.93,-13.43 0.67,-7.1 2.6,-10.57 9.79,-11.54 l 1.39,35.44 c 5.1,7.41 10.82,14.1 17.43,19 -4.9697,7.215 -11.5809,13.148 -19.29,17.31 z"
       fill="#000000"
       id="path1" />
  </g>
</svg>
