<?xml version="1.0" encoding="UTF-8" standalone="no"?>
<!-- Uploaded to: SVG Repo, www.svgrepo.com, Generator: SVG Repo Mixer Tools -->

<svg
   width="217.6129"
   height="669.31421"
   viewBox="0 0 33.729999 103.7437"
   data-name="Layer 1"
   id="Layer_1"
   version="1.1"
   sodipodi:docname="great_sword_placeholder.svg"
   inkscape:version="1.3 (0e150ed6c4, 2023-07-21)"
   xmlns:inkscape="http://www.inkscape.org/namespaces/inkscape"
   xmlns:sodipodi="http://sodipodi.sourceforge.net/DTD/sodipodi-0.dtd"
   xmlns="http://www.w3.org/2000/svg"
   xmlns:svg="http://www.w3.org/2000/svg">
  <sodipodi:namedview
     id="namedview20"
     pagecolor="#ffffff"
     bordercolor="#999999"
     borderopacity="1"
     inkscape:showpageshadow="2"
     inkscape:pageopacity="0"
     inkscape:pagecheckerboard="0"
     inkscape:deskcolor="#d1d1d1"
     inkscape:zoom="0.71859727"
     inkscape:cx="144.72641"
     inkscape:cy="459.92382"
     inkscape:window-width="1920"
     inkscape:window-height="1009"
     inkscape:window-x="-8"
     inkscape:window-y="-8"
     inkscape:window-maximized="1"
     inkscape:current-layer="Layer_1" />
  <defs
     id="defs1">
    <style
       id="style1">.cls-1{fill:none;}.cls-2{clip-path:url(#clip-path);}.cls-3{fill:#fff8e1;}.cls-4{fill:#ffdf81;}.cls-5{fill:#ffd44e;}.cls-6{fill:#ffb100;}</style>
    <clipPath
       id="clip-path">
      <path
         class="cls-1"
         d="m 66.23,87.13 c 0.14,3.77 0.22,7.79 0.22,12 0,3.29 0,6.5 -0.14,9.55 h 1.77 v 1.23 a 3.64,3.64 0 0 1 -3.64,3.64 h -4.89 a 3.64,3.64 0 0 1 -3.64,-3.64 v -1.23 h 1.77 c -0.09,-3.05 -0.14,-6.26 -0.14,-9.55 0,-4.18 0.08,-8.2 0.22,-12 z"
         id="path1" />
    </clipPath>
  </defs>
  <g
     class="cls-2"
     clip-path="url(#clip-path)"
     id="g3"
     transform="translate(-45.18,-10.356294)">
    <path
       class="cls-3"
       d="m 66.23,87.13 c 0.14,3.77 0.22,7.79 0.22,12 0,3.29 0,6.5 -0.14,9.55 h 1.77 v 1.23 a 3.64,3.64 0 0 1 -3.64,3.64 h -4.89 a 3.64,3.64 0 0 1 -3.64,-3.64 v -1.23 h 1.77 c -0.09,-3.05 -0.14,-6.26 -0.14,-9.55 0,-4.18 0.08,-8.2 0.22,-12 z"
       id="path2" />
    <path
       class="cls-4"
       d="m 63.91,87.13 c 0.15,3.77 0.22,7.79 0.22,12 0,3.29 0,6.5 -0.13,9.55 h 1.76 v 1.23 a 3.64,3.64 0 0 1 -3.64,3.64 h -4.89 a 3.64,3.64 0 0 1 -3.64,-3.64 v -1.23 h 1.77 c -0.09,-3.05 -0.14,-6.26 -0.14,-9.55 0,-4.18 0.08,-8.2 0.22,-12 z"
       id="path3" />
  </g>
  <path
     class="cls-4"
     d="m 16.82,73.113706 h 6.21 v -54.84 C 23.03,8.1637058 16.82,0.57370577 16.82,0.57370577"
     id="path4" />
  <path
     class="cls-3"
     d="m 20.76,73.113706 h 1.7 v -54.84 c 0,-10.1100002 -6.2,-17.70000023 -6.2,-17.70000023 l 0.59,0.80000003 a 32.28,32.28 0 0 1 3.91,15.4100002 z"
     id="path5" />
  <path
     class="cls-5"
     d="m 16.82,73.113706 h -6.18 v -54.84 c 0,-10.1100002 6.21,-17.70000023 6.21,-17.70000023"
     id="path6" />
  <path
     class="cls-5"
     d="m 4.91,76.773706 h 23.91 a 4.32,4.32 0 1 0 -4.32,-4.32 4.24,4.24 0 0 0 0.14,1.07 H 9.09 a 4.24,4.24 0 0 0 0.14,-1.07 4.32,4.32 0 1 0 -4.32,4.32 z"
     id="path7" />
  <path
     class="cls-3"
     d="m 32.11,71.313706 a 4.2,4.2 0 0 1 -4.19,4.19 H 4.75 a 4.19,4.19 0 0 1 -3.93,-2.75 4.25,4.25 0 0 0 4.21,3.7 h 23.53 a 4.26,4.26 0 0 0 2.92,-7.35 4.25,4.25 0 0 1 0.63,2.21 z"
     id="path8" />
  <path
     class="cls-6"
     d="M 28.82,77.363706 H 4.91 a 4.91,4.91 0 1 1 4.91,-4.91 3.87,3.87 0 0 1 0,0.48 h 14.09 a 3.87,3.87 0 0 1 0,-0.48 4.91,4.91 0 1 1 4.91,4.91 z m -23.91,-8.64 a 3.73,3.73 0 0 0 0,7.46 h 23.91 a 3.73,3.73 0 1 0 -3.73,-3.73 3.69,3.69 0 0 0 0.12,0.92 0.62,0.62 0 0 1 -0.11,0.51 0.58,0.58 0 0 1 -0.46,0.22 H 9.09 a 0.58,0.58 0 0 1 -0.46,-0.22 0.62,0.62 0 0 1 -0.11,-0.51 3.71,3.71 0 0 0 -3.61,-4.65 z"
     id="path9" />
  <path
     class="cls-6"
     d="M 23.06,73.703706 H 10.64 a 0.59,0.59 0 0 1 -0.59,-0.59 v -54.84 a 31,31 0 0 1 6.35,-18.07000023 0.61,0.61 0 0 1 0.91,0 31.11,31.11 0 0 1 6.34,18.07000023 v 54.84 a 0.59,0.59 0 0 1 -0.59,0.59 z m -11.83,-1.18 h 11.24 v -54.25 c 0,-8.17 -4.21,-14.7500002 -5.62,-16.7200002 -1.41,2 -5.62,8.5500002 -5.62,16.7200002 z"
     id="path10" />
  <path
     class="cls-6"
     d="M 26.9,74.103706 H 6.82 a 2.48,2.48 0 0 1 -2.5,-2.46 0.58,0.58 0 0 1 0.59,-0.59 0.59,0.59 0 0 1 0.59,0.59 1.31,1.31 0 0 0 1.32,1.29 H 26.9 a 1.31,1.31 0 0 0 1.3,-1.29 0.59,0.59 0 0 1 0.59,-0.59 0.58,0.58 0 0 1 0.59,0.59 2.48,2.48 0 0 1 -2.48,2.46 z"
     id="path11" />
  <path
     class="cls-6"
     d="m 19.29,103.74371 h -4.88 a 4.23,4.23 0 0 1 -4.23,-4.220004 v -1.23 a 0.59,0.59 0 0 1 0.59,-0.59 h 1.16 c -0.08,-2.91 -0.12,-5.93 -0.12,-9 0,-4.1 0.07,-8.13 0.22,-12 a 0.58,0.58 0 0 1 0.58,-0.57 h 8.48 a 0.58,0.58 0 0 1 0.58,0.57 c 0.15,3.85 0.22,7.88 0.22,12 0,3 0,6.06 -0.12,9 h 1.16 a 0.6,0.6 0 0 1 0.42,0.18 0.58,0.58 0 0 1 0.17,0.41 v 1.23 a 4.23,4.23 0 0 1 -4.23,4.220004 z m -7.94,-4.860004 v 0.64 a 3.06,3.06 0 0 0 3.06,3.050004 h 4.88 a 3.06,3.06 0 0 0 3.06,-3.050004 v -0.64 h -1.18 a 0.56,0.56 0 0 1 -0.42,-0.18 0.61,0.61 0 0 1 -0.17,-0.43 c 0.09,-3.09 0.14,-6.3 0.14,-9.54 0,-3.88 -0.07,-7.7 -0.2,-11.37 h -7.34 c -0.13,3.67 -0.2,7.49 -0.2,11.37 0,3.24 0.05,6.45 0.14,9.54 a 0.56,0.56 0 0 1 -0.16,0.43 0.64,0.64 0 0 1 -0.43,0.18 z"
     id="path12" />
  <rect
     class="cls-3"
     height="5.8899999"
     transform="rotate(-45)"
     width="5.8899999"
     x="-42.272232"
     y="60.197983"
     id="rect12" />
  <rect
     class="cls-5"
     height="3.51"
     transform="rotate(-45)"
     width="5.8899999"
     x="-42.26078"
     y="60.2215"
     id="rect13" />
  <path
     class="cls-6"
     d="m 16.82,77.213706 v 0 a 0.6,0.6 0 0 1 -0.42,-0.18 l -4.16,-4.16 a 0.59,0.59 0 0 1 0,-0.83 l 4.16,-4.17 a 0.62,0.62 0 0 1 0.84,0 l 4.16,4.17 a 0.59,0.59 0 0 1 0,0.83 l -4.16,4.16 a 0.6,0.6 0 0 1 -0.42,0.18 z m -3.34,-4.76 3.34,3.34 3.34,-3.34 -3.34,-3.34 z"
     id="path13" />
  <path
     class="cls-6"
     d="m 16.82,68.873706 a 0.59,0.59 0 0 1 -0.59,-0.59 v -42 a 0.59,0.59 0 1 1 1.18,0 v 42 a 0.59,0.59 0 0 1 -0.59,0.59 z"
     id="path14" />
  <path
     class="cls-6"
     d="m 16.82,19.783706 a 0.59,0.59 0 0 1 -0.59,-0.59 v -8.43 a 0.59,0.59 0 0 1 1.18,0 v 8.43 a 0.59,0.59 0 0 1 -0.59,0.59 z"
     id="path15" />
  <path
     class="cls-6"
     d="m 21.17,98.883706 h -8.64 a 0.58,0.58 0 0 1 -0.58,-0.59 0.59,0.59 0 0 1 0.58,-0.59 h 8.64 a 0.6,0.6 0 0 1 0.59,0.59 0.59,0.59 0 0 1 -0.59,0.59 z"
     id="path16" />
  <path
     class="cls-6"
     d="m 21.07,81.513706 h -0.12 l -8.44,-1.79 a 0.6,0.6 0 0 1 -0.46,-0.7 0.59,0.59 0 0 1 0.7,-0.45 l 8.45,1.79 a 0.59,0.59 0 0 1 -0.13,1.17 z"
     id="path17" />
  <path
     class="cls-6"
     d="m 21.07,86.373706 h -0.12 l -8.44,-1.79 a 0.6,0.6 0 0 1 -0.46,-0.7 0.59,0.59 0 0 1 0.7,-0.45 l 8.45,1.79 a 0.59,0.59 0 0 1 -0.13,1.17 z"
     id="path18" />
  <path
     class="cls-6"
     d="m 21.07,91.223706 h -0.12 l -8.44,-1.79 a 0.6,0.6 0 0 1 -0.46,-0.7 0.59,0.59 0 0 1 0.7,-0.45 l 8.45,1.79 a 0.59,0.59 0 0 1 0.45,0.7 0.58,0.58 0 0 1 -0.58,0.45 z"
     id="path19" />
  <path
     class="cls-6"
     d="m 21.07,96.083706 h -0.12 l -8.44,-1.79 a 0.6,0.6 0 0 1 -0.46,-0.7 0.59,0.59 0 0 1 0.7,-0.45 l 8.45,1.79 a 0.59,0.59 0 0 1 0.45,0.7 0.58,0.58 0 0 1 -0.58,0.45 z"
     id="path20" />
</svg>
