<?xml version="1.0" encoding="UTF-8" standalone="no"?>
<!-- Uploaded to: SVG Repo, www.svgrepo.com, Generator: SVG Repo Mixer Tools -->

<svg
   fill="#000000"
   width="601.45551"
   height="602.85736"
   viewBox="0 0 24.05822 24.114294"
   version="1.1"
   id="svg1"
   sodipodi:docname="ring1_placeholder.svg"
   inkscape:version="1.3.2 (1:1.3.2+202311252150+091e20ef0f)"
   xmlns:inkscape="http://www.inkscape.org/namespaces/inkscape"
   xmlns:sodipodi="http://sodipodi.sourceforge.net/DTD/sodipodi-0.dtd"
   xmlns="http://www.w3.org/2000/svg"
   xmlns:svg="http://www.w3.org/2000/svg">
  <defs
     id="defs1" />
  <sodipodi:namedview
     id="namedview1"
     pagecolor="#505050"
     bordercolor="#eeeeee"
     borderopacity="1"
     inkscape:showpageshadow="0"
     inkscape:pageopacity="0"
     inkscape:pagecheckerboard="0"
     inkscape:deskcolor="#d1d1d1"
     inkscape:zoom="0.295"
     inkscape:cx="296.61017"
     inkscape:cy="300"
     inkscape:window-width="1920"
     inkscape:window-height="1097"
     inkscape:window-x="3840"
     inkscape:window-y="0"
     inkscape:window-maximized="1"
     inkscape:current-layer="svg1" />
  <path
     d="M 22,3.012731 21.699219,2.71195 C 20,0.81351204 17.5,0.21195004 17.5,0.21195004 14.5,-0.68648796 9.800781,1.313512 5.601563,5.411169 2.101563,8.71195 0,12.71195 0,15.71195 c 0,0.402344 0.101563,0.800781 0.101563,1.199219 0.199218,2 1.5,4.101562 2.597656,5.101562 1.402344,1.398438 3.199219,2.101563 5.199219,2.101563 3.300781,0 7.203125,-1.902344 10.800781,-5.300782 5.601562,-5.5 7,-12 3.300781,-15.800781 z M 6,17.71195 c 0,-1.300781 1.398438,-4 4.398438,-7 2.902343,-2.898438 5.902343,-3.699219 7.300781,-4 C 17,8.614294 15.5,10.911169 13.300781,13.114294 c -2.101562,2 -4.5,3.597656 -6.601562,4.398437 C 6.5,17.614294 6.199219,17.614294 6,17.71195 Z M 7,6.813512 c 3.300781,-3.300781 6.800781,-4.902343 9,-4.902343 0.699219,0 1.300781,0.203125 1.699219,0.601562 0.402344,0.398438 0.601562,1.199219 0.5,2.101563 C 17,4.71195 12.898438,5.411169 9,9.313512 c -2.5,2.5 -5.101562,6.097657 -4.898437,8.597657 -0.601563,0 -1.203125,-0.199219 -1.5,-0.5 -0.203125,-0.199219 -0.402344,-0.5 -0.5,-0.898438 0,0 -0.101563,-0.5 -0.101563,-0.800781 0.101563,-2.5 2,-6 5,-8.898438 z m 10.300781,10.5 C 12.5,22.114294 7,23.411169 4.101563,20.614294 3.898438,20.411169 3.699219,20.21195 3.5,19.911169 c 0.199219,0.101562 0.5,0.101562 0.800781,0.101562 0.898438,0 2,-0.199219 3.097657,-0.601562 2.402343,-0.898438 5,-2.597657 7.300781,-4.898438 3.5,-3.5 5.5,-7.5 5.5,-10.398437 l 0.101562,0.097656 0.300782,0.199219 C 23.398438,7.313512 22,12.71195 17.300781,17.313512 Z"
     id="path1" />
</svg>
