<?xml version="1.0" encoding="UTF-8" standalone="no"?>
<!-- Uploaded to: SVG Repo, www.svgrepo.com, Generator: SVG Repo Mixer Tools -->

<svg
   width="474.177"
   height="610.99969"
   viewBox="0 0 14.22531 18.329991"
   fill="none"
   version="1.1"
   id="svg2"
   sodipodi:docname="ring2_placeholder.svg"
   inkscape:version="1.3.2 (1:1.3.2+202311252150+091e20ef0f)"
   xmlns:inkscape="http://www.inkscape.org/namespaces/inkscape"
   xmlns:sodipodi="http://sodipodi.sourceforge.net/DTD/sodipodi-0.dtd"
   xmlns="http://www.w3.org/2000/svg"
   xmlns:svg="http://www.w3.org/2000/svg">
  <defs
     id="defs2" />
  <sodipodi:namedview
     id="namedview2"
     pagecolor="#505050"
     bordercolor="#eeeeee"
     borderopacity="1"
     inkscape:showpageshadow="0"
     inkscape:pageopacity="0"
     inkscape:pagecheckerboard="0"
     inkscape:deskcolor="#d1d1d1"
     inkscape:zoom="0.295"
     inkscape:cx="235.59322"
     inkscape:cy="303.38983"
     inkscape:window-width="1920"
     inkscape:window-height="1097"
     inkscape:window-x="3840"
     inkscape:window-y="0"
     inkscape:window-maximized="1"
     inkscape:current-layer="svg2" />
  <path
     d="m 7.0827603,7.65999 c -0.1624,7e-4 -0.3205,-0.052 -0.45,-0.15 L 4.5727603,5.97 C 4.4783403,5.90064 4.4012303,5.8104 4.3474503,5.70632 4.2936803,5.60224 4.2646903,5.48713 4.2627603,5.37 V 2.28 c 0.00116,-0.11729 0.02981,-0.23267 0.08364,-0.33687 0.05384,-0.1042 0.13137,-0.19433 0.22636,-0.26313 l 2.06,-1.53 c 0.1298,-0.09737 0.2877,-0.15 0.45,-0.15 0.1623,0 0.3202,0.05263 0.45,0.15 l 2.06,1.55 c 0.095,0.0688 0.1725,0.15893 0.2264,0.26313 0.0538,0.1042 0.0824,0.21958 0.0836,0.33687 v 3.07 c -0.0019,0.11713 -0.0309,0.23224 -0.0847,0.33632 -0.0538,0.10408 -0.1309,0.19432 -0.2253,0.26368 l -2.06,1.53999 c -0.1295,0.098 -0.2876,0.1507 -0.45,0.15 z m -1.32,-2.66999 1.32,1 1.32,-1 V 2.65 l -1.32,-0.98 -1.32,1 z"
     fill="#000000"
     id="path1" />
  <path
     d="m 7.0827603,18.32999 c -1.4062,-0.0113 -2.77779,-0.4376 -3.94267,-1.2254 -1.16487,-0.7878 -2.07117,-1.902 -2.60521003,-3.2029 -0.53403000424,-1.3009 -0.67202,-2.7306 -0.39665,-4.1096 0.27537,-1.379 0.95183003,-2.64605 1.94453003,-3.6421 0.13647,-0.12509 0.31487,-0.19447 0.5,-0.19447 0.18512,0 0.36352,0.06938 0.5,0.19447 0.14045,0.14062 0.21934,0.33125 0.21934,0.53 0,0.19875 -0.07889,0.38937 -0.21934,0.53 -0.78539,0.7901 -1.3192,1.7951 -1.53409,2.8882 -0.21488,1.0932 -0.10122,2.2254 0.32664,3.2541 0.42787,1.0286 1.15078,1.9074 2.07754,2.5257 0.92676,0.6182 2.01581,0.9481 3.12991,0.9481 1.114,0 2.2031,-0.3299 3.1298997,-0.9481 0.9268,-0.6183 1.6497,-1.4971 2.0775,-2.5257 0.4279,-1.0287 0.5416,-2.1609 0.3267,-3.2541 -0.2149,-1.0931 -0.7487,-2.0981 -1.5341,-2.8882 -0.1405,-0.14063 -0.2193,-0.33125 -0.2193,-0.53 0,-0.19875 0.0788,-0.38938 0.2193,-0.53 0.0689,-0.07076 0.1514,-0.12699 0.2424,-0.16539 0.091,-0.0384 0.1888,-0.05818 0.2876,-0.05818 0.0988,0 0.1966,0.01978 0.2876,0.05818 0.091,0.0384 0.1735,0.09463 0.2424,0.16539 0.9962,0.99968 1.6738,2.2722 1.9473,3.6568 0.2734,1.3845 0.1303,2.8191 -0.4111,4.1224 -0.5415,1.3034 -1.457,2.417 -2.631,3.2003 -1.1740997,0.7832 -2.5538997,1.201 -3.9651997,1.2005 z"
     fill="#000000"
     id="path2" />
</svg>
