<?xml version="1.0" encoding="UTF-8" standalone="no"?>
<!-- Uploaded to: SVG Repo, www.svgrepo.com, Generator: SVG Repo Mixer Tools -->

<svg
   fill="#000000"
   height="799.99725"
   width="613.49274"
   version="1.1"
   id="Layer_1"
   viewBox="0 0 392.60698 511.96124"
   xml:space="preserve"
   sodipodi:docname="shield-medieval-svgrepo-com.svg"
   inkscape:version="1.3 (0e150ed6c4, 2023-07-21)"
   xmlns:inkscape="http://www.inkscape.org/namespaces/inkscape"
   xmlns:sodipodi="http://sodipodi.sourceforge.net/DTD/sodipodi-0.dtd"
   xmlns="http://www.w3.org/2000/svg"
   xmlns:svg="http://www.w3.org/2000/svg"><defs
   id="defs5" /><sodipodi:namedview
   id="namedview5"
   pagecolor="#ffffff"
   bordercolor="#999999"
   borderopacity="1"
   inkscape:showpageshadow="2"
   inkscape:pageopacity="0"
   inkscape:pagecheckerboard="0"
   inkscape:deskcolor="#d1d1d1"
   inkscape:zoom="1.01625"
   inkscape:cx="307.01107"
   inkscape:cy="400"
   inkscape:window-width="1920"
   inkscape:window-height="1009"
   inkscape:window-x="-8"
   inkscape:window-y="-8"
   inkscape:window-maximized="1"
   inkscape:current-layer="Layer_1" />&#10;<g
   transform="translate(-60.678362,2.5016989e-4)"
   id="g5">&#10;	<g
   id="g4">&#10;		<g
   id="g3">&#10;			<path
   d="M 393.513,159.932 C 355.753,143.394 327.994,109.363 319.478,69.129 271.35,56.124 241.936,56.107 194.49,69.095 c -8.508,40.252 -36.267,74.3 -74.044,90.837 l 0.026,104.858 -0.06,1.468 c -0.034,3.405 0.503,90.385 136.568,177.408 135.671,-86.767 136.61,-173.303 136.585,-176.99 l -0.043,-0.717 z m -20.267,94.157 -19.055,15.249 3.593,18.014 c 0.708,3.516 -0.862,7.091 -3.917,8.96 -3.072,1.86 -6.946,1.613 -9.754,-0.606 -0.247,-0.196 -25.139,-19.465 -61.184,-22.323 2.842,36.241 22.127,60.919 22.332,61.184 2.227,2.799 2.466,6.699 0.606,9.754 -1.869,3.063 -5.461,4.634 -8.96,3.917 l -18.022,-3.601 -15.241,19.055 c -1.621,2.022 -4.07,3.2 -6.665,3.2 -2.595,0 -5.043,-1.178 -6.665,-3.2 l -15.241,-19.055 -18.022,3.601 c -3.541,0.725 -7.091,-0.862 -8.96,-3.917 -1.86,-3.055 -1.621,-6.955 0.606,-9.754 0.196,-0.256 19.465,-25.148 22.332,-61.193 -36.25,2.85 -60.919,22.127 -61.184,22.332 -2.816,2.227 -6.699,2.466 -9.754,0.606 -3.055,-1.869 -4.625,-5.444 -3.917,-8.96 l 3.593,-18.014 -19.055,-15.249 c -2.022,-1.613 -3.2,-4.07 -3.2,-6.665 0,-2.586 1.178,-5.043 3.2,-6.664 l 19.055,-15.241 -3.593,-18.022 c -0.708,-3.516 0.862,-7.091 3.917,-8.951 3.055,-1.877 6.938,-1.63 9.754,0.597 0.247,0.196 25.139,19.464 61.184,22.332 -2.842,-36.241 -22.127,-60.919 -22.332,-61.184 -2.227,-2.807 -2.466,-6.707 -0.606,-9.762 1.877,-3.055 5.487,-4.608 8.96,-3.917 l 18.022,3.61 15.241,-19.055 c 3.251,-4.053 10.078,-4.053 13.329,0 l 15.241,19.055 18.022,-3.61 c 3.533,-0.708 7.083,0.862 8.96,3.917 1.86,3.055 1.621,6.955 -0.606,9.762 -0.196,0.247 -19.465,25.148 -22.332,61.184 36.25,-2.842 60.919,-22.118 61.184,-22.332 2.816,-2.227 6.69,-2.475 9.754,-0.597 3.055,1.86 4.625,5.436 3.917,8.951 l -3.593,18.022 19.055,15.241 c 2.022,1.621 3.2,4.079 3.2,6.664 0.001,2.594 -1.176,5.052 -3.199,6.665 z"
   id="path1" />&#10;			<path
   d="m 336.438,227.269 0.785,-3.942 c -14.242,7.287 -36.335,15.565 -63.181,15.565 -4.71,0 -8.533,-3.814 -8.533,-8.533 0,-26.837 8.277,-48.93 15.573,-63.172 l -3.934,0.785 c -3.115,0.64 -6.34,-0.538 -8.346,-3.038 l -11.827,-14.78 -11.819,14.78 c -2.005,2.5 -5.239,3.669 -8.346,3.038 l -3.934,-0.785 c 7.296,14.242 15.565,36.335 15.565,63.172 0,4.719 -3.814,8.533 -8.533,8.533 -26.837,0 -48.93,-8.277 -63.172,-15.565 l 0.785,3.942 c 0.623,3.123 -0.546,6.34 -3.038,8.337 l -14.78,11.819 14.78,11.827 c 2.492,1.988 3.661,5.205 3.038,8.337 l -0.785,3.942 c 14.242,-7.287 36.335,-15.573 63.172,-15.573 4.719,0 8.533,3.823 8.533,8.533 0,26.837 -8.269,48.93 -15.565,63.181 l 3.934,-0.794 c 0.563,-0.111 1.118,-0.162 1.673,-0.162 2.56,0 5.026,1.152 6.673,3.2 l 11.819,14.788 11.827,-14.788 c 2.005,-2.5 5.222,-3.661 8.346,-3.038 l 3.934,0.794 c -7.296,-14.251 -15.573,-36.343 -15.573,-63.181 0,-4.71 3.823,-8.533 8.533,-8.533 26.846,0 48.939,8.286 63.181,15.573 l -0.785,-3.942 c -0.623,-3.132 0.538,-6.349 3.029,-8.337 l 14.788,-11.827 -14.788,-11.819 c -2.492,-1.997 -3.652,-5.214 -3.029,-8.337 z"
   id="path2" />&#10;			<path
   d="M 453.249,264.308 V 119.429 c 0,-4.719 -3.823,-8.533 -8.533,-8.533 -37.641,0 -68.267,-30.626 -68.267,-68.267 0,-14.327 -18.057,-24.576 -34.961,-29.389 -62.02,-17.655 -107.853,-17.655 -169.054,0.008 -16.879,4.881 -34.918,15.155 -34.918,29.38 0,37.641 -30.626,68.267 -68.267,68.267 -4.719,0 -8.533,3.814 -8.533,8.533 l 0.009,144.64 c -0.273,5.461 -4.403,135.057 192.043,246.775 1.306,0.742 2.756,1.118 4.215,1.118 1.459,0 2.91,-0.375 4.215,-1.118 C 455.391,400.415 453.582,272.5 453.249,264.308 Z M 261.505,460.993 c -1.382,0.87 -2.961,1.297 -4.523,1.297 -1.579,0 -3.14,-0.427 -4.531,-1.297 C 103.826,367.997 103.305,269.881 103.357,265.75 l 0.06,-1.357 -0.034,-110.174 c 0,-3.533 2.176,-6.699 5.47,-7.97 36.651,-14.054 63.403,-46.754 69.82,-85.333 0.538,-3.251 2.901,-5.897 6.059,-6.801 27.631,-7.945 49.818,-11.486 71.945,-11.486 22.127,0 44.493,3.541 72.525,11.477 3.174,0.905 5.547,3.55 6.084,6.81 6.426,38.579 33.178,71.279 69.82,85.333 3.302,1.271 5.478,4.437 5.478,7.97 l 0.043,111.991 c 0.032,4.447 -0.958,102.077 -149.122,194.783 z"
   id="path3" />&#10;		</g>&#10;	</g>&#10;</g>&#10;</svg>
