<?xml version="1.0" encoding="UTF-8" standalone="no"?>
<!-- Uploaded to: SVG Repo, www.svgrepo.com, Generator: SVG Repo Mixer Tools -->

<svg
   fill="#000000"
   height="800.00159"
   width="227.119"
   version="1.1"
   id="Layer_1"
   viewBox="0 0 145.35616 512.00102"
   xml:space="preserve"
   sodipodi:docname="short_sword_placeholder.svg"
   inkscape:version="1.3 (0e150ed6c4, 2023-07-21)"
   xmlns:inkscape="http://www.inkscape.org/namespaces/inkscape"
   xmlns:sodipodi="http://sodipodi.sourceforge.net/DTD/sodipodi-0.dtd"
   xmlns="http://www.w3.org/2000/svg"
   xmlns:svg="http://www.w3.org/2000/svg"><defs
   id="defs4" /><sodipodi:namedview
   id="namedview4"
   pagecolor="#ffffff"
   bordercolor="#999999"
   borderopacity="1"
   inkscape:showpageshadow="2"
   inkscape:pageopacity="0"
   inkscape:pagecheckerboard="0"
   inkscape:deskcolor="#d1d1d1"
   inkscape:zoom="0.71859727"
   inkscape:cx="-137.76841"
   inkscape:cy="401.47662"
   inkscape:window-width="1920"
   inkscape:window-height="1009"
   inkscape:window-x="-8"
   inkscape:window-y="-8"
   inkscape:window-maximized="1"
   inkscape:current-layer="Layer_1" />&#10;<g
   transform="translate(-182.3234)"
   id="g4">&#10;	<g
   id="g3">&#10;		<g
   id="g2">&#10;			<path
   d="m 319.839,316.587 c -6.277,-5.65 -14.862,-8.051 -23.04,-6.216 V 85.333 c 0,-0.853 0,-2.56 -0.853,-3.413 L 261.813,5.12 C 260.96,1.707 257.546,0 254.133,0 c -3.413,0 -6.827,1.707 -7.68,5.12 l -34.133,76.8 c -0.853,0.853 -0.853,2.56 -0.853,3.413 v 224.478 c -7.523,-1.218 -15.588,1.03 -21.333,6.776 -5.12,5.12 -8.533,12.8 -7.68,20.48 0,7.68 4.267,15.36 11.093,19.627 10.636,7.091 22.481,12.36 34.987,15.487 v 88.941 c -9.536,1.676 -17.067,10.138 -17.067,19.306 v 11.093 c 0,11.093 9.387,20.48 20.48,20.48 h 44.373 c 11.093,0 20.48,-9.387 21.333,-19.627 V 481.28 c 0,-10.227 -7.982,-18.984 -17.92,-20.293 v -88.416 c 13.231,-3.136 25.883,-8.779 37.547,-16.731 5.973,-4.267 9.387,-11.093 10.24,-18.773 0.852,-7.68 -1.708,-15.36 -7.681,-20.48 z m -65.707,-287.574 25.6,58.027 v 231.253 c -3.975,2.208 -8.181,3.726 -12.614,4.681 -3.358,0.694 -6.83,1.112 -10.44,1.244 -0.102,0.004 -0.204,0.008 -0.306,0.011 -0.741,0.024 -1.488,0.038 -2.241,0.038 -8.256,0 -17.305,-2.399 -24.84,-5.646 -0.255,-0.126 -0.507,-0.259 -0.76,-0.389 V 87.04 Z m 26.453,462.507 c 0,1.707 -1.707,3.413 -3.413,3.413 h -45.227 c -1.707,0 -3.413,-1.707 -3.413,-2.56 V 481.28 c 0,-1.707 1.707,-3.413 3.413,-3.413 v -0.853 h 1.085 c 1.169,0.55 2.525,0.853 4.035,0.853 h 34.133 c 1.51,0 2.865,-0.304 4.035,-0.853 h 1.939 c 1.707,0 3.413,1.707 3.413,3.413 z M 262.665,375.467 V 460.8 h -17.067 v -85.333 z m 45.227,-33.28 c -15.36,10.24 -34.133,16.213 -52.907,16.213 h -0.853 c -18.773,0 -35.84,-5.973 -51.2,-15.36 -2.56,-1.707 -4.267,-4.267 -4.267,-6.827 0,-1.707 0,-4.267 2.56,-6.827 1.707,-1.707 4.267,-2.56 5.973,-2.56 1.706,0 3.413,0 5.12,1.707 11.947,8.533 26.453,12.8 41.813,12.8 0.977,0 1.948,-0.022 2.916,-0.057 0.119,-0.005 0.237,-0.012 0.356,-0.017 6.699,-0.272 13.189,-1.381 19.469,-3.33 7.506,-2.245 14.681,-5.486 21.632,-9.396 3.413,-2.56 7.68,-1.707 10.24,0.853 1.707,1.707 2.56,4.267 2.56,6.827 0.001,1.707 -0.852,4.267 -3.412,5.974 z"
   id="path1" />&#10;			<path
   d="m 254.132,290.133 c 5.12,0 8.533,-3.413 8.533,-8.533 V 104.96 c 0,-5.12 -3.413,-8.533 -8.533,-8.533 -5.12,0 -8.533,3.413 -8.533,8.533 V 281.6 c 0,5.12 3.413,8.533 8.533,8.533 z"
   id="path2" />&#10;		</g>&#10;	</g>&#10;</g>&#10;</svg>
